<?xml version="1.0" encoding="utf-8"?>
<!-- Generator: Adobe Illustrator 26.0.0, SVG Export Plug-In . SVG Version: 6.00 Build 0)  -->
<svg version="1.1" id="Слой_1" xmlns="http://www.w3.org/2000/svg" xmlns:xlink="http://www.w3.org/1999/xlink" x="0px" y="0px"
	 viewBox="0 0 1000 1000" style="enable-background:new 0 0 1000 1000;" xml:space="preserve">
<style type="text/css">
	.st0{fill:#8AFFAE;}
	.st1{fill:#FF3200;}
	.st2{fill:#8AFFAE;stroke:#000000;stroke-width:3;stroke-miterlimit:10;}
	.st3{stroke:#000000;stroke-width:7;stroke-miterlimit:10;}
</style>
<g>
	<rect x="5.5" y="5.5" class="st0" width="989" height="989"/>
	<path d="M989,11v978H11V11H989 M1000,0H0v1000h1000V0L1000,0z"/>
</g>
<g>
	<rect x="11.5" y="480.5" class="st1" width="977" height="39"/>
	<path d="M988,481v38H12v-38H988 M989,480H11v40h978V480L989,480z"/>
</g>
<g>
	<rect x="481.5" y="12.5" class="st1" width="37" height="975"/>
	<path d="M517,14v972h-34V14H517 M520,11h-40v978h40V11L520,11z"/>
</g>
<polyline class="st2" points="0,0 0,0 0,0 "/>
<path class="st3" d="M482.5,11C325.4,45.9,168.2,80.7,11.1,115.5c36.3,157,72.7,314,109,471l-36.5-549L482.5,11z"/>
<path class="st3" d="M517.4,988.7c157.1-34.8,314.3-69.6,471.4-104.5c-36.3-157-72.7-314-109-471l36.5,549L517.4,988.7z"/>
<path class="st3" d="M482.4,989C325.3,954.2,168.1,919.3,11,884.5c36.3-157,72.7-314,109-471l-36.5,549L482.4,989z"/>
<path class="st3" d="M517.4,11.5C674.6,46.3,831.7,81.2,988.9,116c-36.3,157-72.7,314-109,471l36.5-549L517.4,11.5z"/>
</svg>
